<svg width="672" height="107" viewBox="0 0 672 107" fill="none" xmlns="http://www.w3.org/2000/svg">
<path d="M115.881 66.1035V105.403C104.995 105.403 96.0684 96.5357 96.0684 85.4794V69.1686C96.0684 58.1123 91.1697 52.9673 83.1139 52.9673C74.1872 52.9673 67.9821 58.6596 67.9821 70.9201V105.403C57.0959 105.403 48.1692 96.5357 48.1692 85.4794V69.1686C48.1692 58.1123 43.4882 52.9673 35.2147 52.9673C26.5057 52.9673 20.1918 58.6596 20.1918 70.9201V105.403C9.30558 105.403 0.378906 96.5357 0.378906 85.4794V36.7659H11.374C15.7284 36.7659 19.212 40.2689 19.212 44.6477C24.3285 38.7364 31.9488 35.6713 40.6578 35.6713C50.1288 35.6713 58.2934 39.3932 63.0833 46.9465C68.5264 39.9405 77.4531 35.6713 87.6861 35.6713C104.124 35.7807 115.881 45.195 115.881 66.1035Z" fill="white"/>
<path d="M195.023 76.7219H146.035C147.886 85.2605 154.744 90.515 164.542 90.515C171.4 90.515 176.299 88.3256 180.762 83.8374L190.777 95.3316C184.79 102.557 175.755 106.388 164.106 106.388C141.681 106.388 127.202 91.5002 127.202 71.0296C127.202 50.4495 142.007 35.6713 161.711 35.6713C180.762 35.6713 195.459 49.2454 195.459 71.2485C195.35 72.8905 195.132 75.0799 195.023 76.7219ZM145.818 65.1183H177.714C176.408 56.4703 170.203 50.7779 161.82 50.7779C153.22 50.7779 147.124 56.2513 145.818 65.1183Z" fill="white"/>
<path d="M279.719 0.861328V105.404H260.777V97.522C255.878 103.543 248.584 106.498 239.44 106.498C220.171 106.498 205.257 92.7054 205.257 71.1401C205.257 49.5748 220.063 35.7818 239.44 35.7818C247.822 35.7818 254.898 38.409 259.906 44.1014V20.7846C259.906 9.83774 268.833 0.861328 279.719 0.861328ZM260.341 71.1401C260.341 59.3175 252.721 52.0926 242.924 52.0926C233.017 52.0926 225.397 59.208 225.397 71.1401C225.397 82.9627 233.017 90.1876 242.924 90.1876C252.721 90.0781 260.341 82.9627 260.341 71.1401Z" fill="white"/>
<path d="M297.027 35.6713H316.839V105.403H297.027V35.6713Z" fill="white"/>
<path d="M476.214 105.404H415.251V93.3621L450.087 51.9831H431.472C423.089 51.9831 416.231 45.0865 416.231 36.6575H475.125V48.699L440.289 90.0781H460.973C469.464 90.0781 476.214 96.9746 476.214 105.404Z" fill="white"/>
<path d="M481.875 71.1416C481.875 50.4521 497.768 35.7833 519.432 35.7833C541.095 35.7833 556.88 50.4521 556.88 71.1416C556.88 91.8312 541.095 106.5 519.432 106.5C497.768 106.5 481.875 91.8312 481.875 71.1416ZM536.85 71.1416C536.85 59.319 529.338 52.0941 519.432 52.0941C509.525 52.0941 501.905 59.2096 501.905 71.1416C501.905 82.9642 509.525 90.1892 519.432 90.1892C529.338 90.1892 536.85 82.9642 536.85 71.1416Z" fill="white"/>
<path d="M565.045 71.1416C565.045 50.4521 580.939 35.7833 602.603 35.7833C624.266 35.7833 640.051 50.4521 640.051 71.1416C640.051 91.8312 624.266 106.5 602.603 106.5C580.939 106.5 565.045 91.8312 565.045 71.1416ZM620.021 71.1416C620.021 59.319 612.509 52.0941 602.603 52.0941C592.696 52.0941 585.076 59.2096 585.076 71.1416C585.076 82.9642 592.696 90.1892 602.603 90.1892C612.509 90.1892 620.021 82.9642 620.021 71.1416Z" fill="white"/>
<path d="M659.647 106.062C666.26 106.062 671.621 100.671 671.621 94.0204C671.621 87.3701 666.26 81.9789 659.647 81.9789C653.033 81.9789 647.672 87.3701 647.672 94.0204C647.672 100.671 653.033 106.062 659.647 106.062Z" fill="#05D6AD"/>
<path d="M403.494 36.7685V105.405H384.552V97.5235C379.654 103.544 372.36 106.5 363.216 106.5C343.947 106.5 329.033 92.7069 329.033 71.1416C329.033 49.5764 343.838 35.7833 363.216 35.7833C371.598 35.7833 378.674 38.4106 383.682 44.1029C383.682 40.0526 386.947 36.878 390.866 36.878H403.494V36.7685ZM384.008 71.1416C384.008 59.319 376.388 52.0941 366.59 52.0941C356.684 52.0941 349.064 59.2096 349.064 71.1416C349.064 82.9642 356.684 90.1892 366.59 90.1892C376.388 90.0797 384.008 82.9642 384.008 71.1416Z" fill="white"/>
</svg>
