<svg width="392" height="134" viewBox="0 0 392 134" fill="none" xmlns="http://www.w3.org/2000/svg">
<path d="M67.06 3.8999C32.17 3.8999 3.78003 32.2899 3.78003 67.1799C3.78003 102.07 32.17 130.46 67.06 130.46H325.19C360.08 130.46 388.47 102.07 388.47 67.1799C388.47 32.2899 360.08 3.8999 325.19 3.8999H67.06ZM325.19 132.02H67.06C31.31 132.02 2.21997 102.93 2.21997 67.1799C2.21997 31.4299 31.31 2.34009 67.06 2.34009H325.19C360.94 2.34009 390.03 31.4299 390.03 67.1799C390.03 102.93 360.94 132.02 325.19 132.02Z" stroke="url(#paint0_linear_30_2)" stroke-width="3" stroke-miterlimit="10"/>
<path d="M73.7232 91.3401V41.8081H85.1863V81.9998H110.023V91.3401H73.7232ZM139.726 92.1892C135.811 92.1892 132.178 91.5524 128.829 90.2787C125.527 89.005 122.649 87.2124 120.196 84.9009C117.791 82.5894 115.904 79.877 114.536 76.7635C113.215 73.6501 112.554 70.2536 112.554 66.5741C112.554 62.8946 113.215 59.4981 114.536 56.3846C115.904 53.2712 117.814 50.5587 120.267 48.2472C122.72 45.9358 125.598 44.1432 128.9 42.8695C132.202 41.5958 135.787 40.959 139.655 40.959C143.571 40.959 147.156 41.5958 150.411 42.8695C153.713 44.1432 156.567 45.9358 158.973 48.2472C161.426 50.5587 163.336 53.2712 164.705 56.3846C166.073 59.4509 166.757 62.8474 166.757 66.5741C166.757 70.2536 166.073 73.6737 164.705 76.8343C163.336 79.9477 161.426 82.6602 158.973 84.9717C156.567 87.236 153.713 89.005 150.411 90.2787C147.156 91.5524 143.594 92.1892 139.726 92.1892ZM139.655 82.4243C141.873 82.4243 143.901 82.0469 145.741 81.2922C147.628 80.5374 149.279 79.4524 150.694 78.0372C152.109 76.622 153.194 74.9474 153.949 73.0132C154.751 71.0791 155.152 68.9328 155.152 66.5741C155.152 64.2154 154.751 62.069 153.949 60.1349C153.194 58.2008 152.109 56.5262 150.694 55.111C149.326 53.6958 147.699 52.6108 145.812 51.856C143.925 51.1012 141.873 50.7238 139.655 50.7238C137.438 50.7238 135.386 51.1012 133.499 51.856C131.66 52.6108 130.032 53.6958 128.617 55.111C127.202 56.5262 126.093 58.2008 125.291 60.1349C124.536 62.069 124.159 64.2154 124.159 66.5741C124.159 68.8856 124.536 71.032 125.291 73.0132C126.093 74.9474 127.178 76.622 128.546 78.0372C129.961 79.4524 131.612 80.5374 133.499 81.2922C135.386 82.0469 137.438 82.4243 139.655 82.4243ZM199.288 92.1892C195.373 92.1892 191.764 91.576 188.462 90.3494C185.207 89.0758 182.353 87.2832 179.9 84.9717C177.494 82.6602 175.607 79.9477 174.239 76.8343C172.919 73.7208 172.258 70.3008 172.258 66.5741C172.258 62.8474 172.919 59.4273 174.239 56.3139C175.607 53.2004 177.518 50.488 179.971 48.1765C182.424 45.865 185.302 44.096 188.604 42.8695C191.906 41.5958 195.538 40.959 199.501 40.959C203.888 40.959 207.827 41.6902 211.318 43.1525C214.856 44.6149 217.828 46.7377 220.233 49.5209L212.874 56.3139C211.082 54.427 209.124 53.0353 207.001 52.139C204.878 51.1956 202.567 50.7238 200.067 50.7238C197.661 50.7238 195.467 51.1012 193.486 51.856C191.505 52.6108 189.783 53.6958 188.321 55.111C186.905 56.5262 185.797 58.2008 184.995 60.1349C184.24 62.069 183.863 64.2154 183.863 66.5741C183.863 68.8856 184.24 71.0084 184.995 72.9425C185.797 74.8766 186.905 76.5748 188.321 78.0372C189.783 79.4524 191.481 80.5374 193.415 81.2922C195.397 82.0469 197.567 82.4243 199.925 82.4243C202.19 82.4243 204.383 82.0705 206.506 81.3629C208.676 80.6082 210.775 79.3581 212.804 77.6126L219.314 85.8916C216.625 87.92 213.488 89.4767 209.902 90.5617C206.364 91.6467 202.826 92.1892 199.288 92.1892ZM208.841 84.4056V65.7957H219.314V85.8916L208.841 84.4056ZM250.001 91.3401V41.8081H261.464V91.3401H250.001ZM273.219 91.3401V41.8081H282.701L311.925 77.4711H307.326V41.8081H318.647V91.3401H309.236L279.942 55.677H284.541V91.3401H273.219Z" fill="white"/>
<defs>
<linearGradient id="paint0_linear_30_2" x1="0.719971" y1="67.1801" x2="391.54" y2="67.1801" gradientUnits="userSpaceOnUse">
<stop stop-color="#05CCA3"/>
<stop offset="0.5" stop-color="#46AFE1"/>
<stop offset="1" stop-color="#8085F0"/>
</linearGradient>
</defs>
</svg>
