<svg width="811" height="124" viewBox="0 0 811 124" fill="none" xmlns="http://www.w3.org/2000/svg">
<path d="M749.7 123.51H62.16C28.35 123.51 0.849976 96.01 0.849976 62.2C0.849976 28.3899 28.35 0.889893 62.16 0.889893H749.69C783.5 0.889893 811 28.3899 811 62.2C811 96.01 783.5 123.51 749.69 123.51H749.7Z" fill="url(#paint0_linear_32_7)"/>
<path d="M40.45 63.6899L52.24 73.0701C52.41 73.2101 52.62 73.3199 52.84 73.3999C53.07 73.4799 53.31 73.51 53.56 73.51C53.81 73.51 54.05 73.4699 54.28 73.3999C54.51 73.3199 54.71 73.2101 54.88 73.0701C55.23 72.7901 55.42 72.42 55.42 72.03C55.42 71.64 55.23 71.27 54.88 70.99L44.41 62.6499L54.96 54.3101C55.13 54.1701 55.27 54.0001 55.36 53.8201C55.45 53.6401 55.5 53.44 55.49 53.25C55.49 53.05 55.43 52.8599 55.34 52.6799C55.25 52.4999 55.1 52.34 54.92 52.2C54.74 52.06 54.53 51.9599 54.3 51.8799C54.07 51.8099 53.82 51.77 53.57 51.77C53.32 51.77 53.08 51.8099 52.85 51.8899C52.62 51.9699 52.42 52.08 52.24 52.22L40.37 61.6001C40.2 61.7401 40.06 61.9101 39.98 62.0901C39.89 62.2701 39.85 62.4599 39.86 62.6599C39.86 62.8499 39.92 63.05 40.03 63.22C40.13 63.4 40.28 63.5599 40.46 63.6899H40.45Z" fill="white"/>
<path d="M84.3075 72.71V52.032H86.4935V70.8194H98.0731V72.71H84.3075ZM103.652 61.278H114.582V63.139H103.652V61.278ZM103.889 70.8194H116.325V72.71H101.703V52.032H115.882V53.9225H103.889V70.8194ZM125.481 72.71V53.9225H118.214V52.032H134.934V53.9225H127.667V72.71H125.481ZM137.549 57.999L138.849 52.5637L139.085 53.8044C138.632 53.8044 138.248 53.6665 137.933 53.3908C137.638 53.0954 137.49 52.7114 137.49 52.2387C137.49 51.7661 137.638 51.3821 137.933 51.0867C138.248 50.7913 138.622 50.6436 139.056 50.6436C139.508 50.6436 139.873 50.8011 140.148 51.1162C140.444 51.4116 140.592 51.7858 140.592 52.2387C140.592 52.3963 140.582 52.5538 140.562 52.7114C140.542 52.8689 140.503 53.0462 140.444 53.2431C140.405 53.4203 140.336 53.6468 140.237 53.9225L138.967 57.999H137.549ZM151.512 72.8872C149.976 72.8872 148.499 72.641 147.081 72.1487C145.683 71.6367 144.6 70.9868 143.832 70.1991L144.688 68.5153C145.417 69.2242 146.392 69.8249 147.613 70.3172C148.853 70.7899 150.153 71.0262 151.512 71.0262C152.812 71.0262 153.865 70.8686 154.673 70.5535C155.5 70.2188 156.1 69.7757 156.475 69.2242C156.869 68.6728 157.065 68.0623 157.065 67.3928C157.065 66.5853 156.829 65.9355 156.356 65.4431C155.904 64.9508 155.303 64.5668 154.555 64.2911C153.806 63.9957 152.979 63.7396 152.073 63.523C151.167 63.3064 150.261 63.0799 149.356 62.8436C148.45 62.5876 147.613 62.2528 146.845 61.8392C146.096 61.4257 145.486 60.8841 145.013 60.2145C144.56 59.5253 144.334 58.6292 144.334 57.5264C144.334 56.5023 144.6 55.5669 145.131 54.7201C145.683 53.8536 146.52 53.1643 147.642 52.6523C148.765 52.1206 150.202 51.8547 151.955 51.8547C153.117 51.8547 154.269 52.0221 155.411 52.3569C156.553 52.672 157.538 53.1151 158.365 53.6862L157.627 55.4291C156.741 54.8383 155.795 54.405 154.791 54.1293C153.806 53.8536 152.851 53.7157 151.925 53.7157C150.685 53.7157 149.661 53.8831 148.853 54.2179C148.046 54.5527 147.445 55.0057 147.051 55.5768C146.677 56.1282 146.49 56.7584 146.49 57.4673C146.49 58.2747 146.717 58.9246 147.17 59.417C147.642 59.9093 148.253 60.2933 149.001 60.569C149.769 60.8447 150.606 61.0909 151.512 61.3075C152.418 61.5241 153.314 61.7605 154.2 62.0165C155.106 62.2725 155.933 62.6073 156.681 63.0208C157.449 63.4147 158.06 63.9464 158.513 64.616C158.986 65.2856 159.222 66.1619 159.222 67.2451C159.222 68.2494 158.946 69.1849 158.395 70.0514C157.843 70.8982 156.997 71.5874 155.854 72.1192C154.732 72.6312 153.284 72.8872 151.512 72.8872ZM180.696 72.8872C179.14 72.8872 177.703 72.6312 176.383 72.1192C175.064 71.5874 173.922 70.8489 172.957 69.9037C171.992 68.9584 171.233 67.8457 170.682 66.5656C170.15 65.2856 169.884 63.8873 169.884 62.371C169.884 60.8546 170.15 59.4563 170.682 58.1763C171.233 56.8962 171.992 55.7835 172.957 54.8383C173.941 53.893 175.093 53.1643 176.413 52.6523C177.732 52.1206 179.17 51.8547 180.726 51.8547C182.222 51.8547 183.63 52.1107 184.95 52.6228C186.269 53.1151 187.382 53.8634 188.288 54.8678L186.899 56.2562C186.053 55.3897 185.117 54.7693 184.093 54.3952C183.069 54.0013 181.966 53.8044 180.785 53.8044C179.544 53.8044 178.392 54.021 177.329 54.4542C176.265 54.8678 175.339 55.4684 174.552 56.2562C173.764 57.0242 173.144 57.9301 172.691 58.9739C172.257 59.9979 172.041 61.1303 172.041 62.371C172.041 63.6116 172.257 64.7539 172.691 65.7976C173.144 66.8217 173.764 67.7275 174.552 68.5153C175.339 69.2833 176.265 69.884 177.329 70.3172C178.392 70.7308 179.544 70.9376 180.785 70.9376C181.966 70.9376 183.069 70.7406 184.093 70.3468C185.117 69.9529 186.053 69.3227 186.899 68.4562L188.288 69.8446C187.382 70.8489 186.269 71.6071 184.95 72.1192C183.63 72.6312 182.212 72.8872 180.696 72.8872ZM192.948 72.71V52.032H200.687C202.44 52.032 203.947 52.3175 205.207 52.8886C206.467 53.44 207.432 54.2475 208.102 55.3109C208.791 56.3546 209.136 57.6249 209.136 59.1216C209.136 60.5789 208.791 61.8392 208.102 62.9027C207.432 63.9464 206.467 64.7539 205.207 65.325C203.947 65.8764 202.44 66.1521 200.687 66.1521H194.159L195.134 65.1477V72.71H192.948ZM207.068 72.71L201.751 65.2068H204.114L209.461 72.71H207.068ZM195.134 65.325L194.159 64.2911H200.628C202.696 64.2911 204.262 63.8381 205.325 62.9322C206.408 62.0263 206.95 60.7561 206.95 59.1216C206.95 57.4673 206.408 56.1873 205.325 55.2814C204.262 54.3755 202.696 53.9225 200.628 53.9225H194.159L195.134 52.8886V65.325ZM216.245 61.278H227.174V63.139H216.245V61.278ZM216.481 70.8194H228.917V72.71H214.295V52.032H228.474V53.9225H216.481V70.8194ZM230.747 72.71L240.2 52.032H242.356L251.809 72.71H249.505L240.82 53.3022H241.707L233.022 72.71H230.747ZM234.469 67.186L235.119 65.4136H247.142L247.792 67.186H234.469ZM258.209 72.71V53.9225H250.942V52.032H267.662V53.9225H260.395V72.71H258.209ZM273.103 61.278H284.033V63.139H273.103V61.278ZM273.34 70.8194H285.776V72.71H271.154V52.032H285.333V53.9225H273.34V70.8194ZM298.646 72.71V52.032H307.567C309.871 52.032 311.653 52.4948 312.913 53.4203C314.193 54.3459 314.834 55.6555 314.834 57.3492C314.834 58.4717 314.568 59.417 314.036 60.185C313.524 60.953 312.815 61.534 311.909 61.9279C311.023 62.3217 310.048 62.5187 308.985 62.5187L309.487 61.8097C310.806 61.8097 311.939 62.0165 312.884 62.43C313.849 62.8239 314.597 63.4246 315.129 64.232C315.661 65.0197 315.926 66.0044 315.926 67.186C315.926 68.9387 315.277 70.2975 313.977 71.2625C312.697 72.2275 310.757 72.71 308.157 72.71H298.646ZM300.832 70.908H308.128C309.94 70.908 311.328 70.6028 312.293 69.9923C313.258 69.3621 313.741 68.3676 313.741 67.0087C313.741 65.6696 313.258 64.6948 312.293 64.0843C311.328 63.4541 309.94 63.139 308.128 63.139H300.595V61.3371H307.419C309.073 61.3371 310.353 61.022 311.259 60.3918C312.185 59.7616 312.648 58.8262 312.648 57.5855C312.648 56.3251 312.185 55.3897 311.259 54.7792C310.353 54.149 309.073 53.8339 307.419 53.8339H300.832V70.908ZM322.866 61.278H333.795V63.139H322.866V61.278ZM323.102 70.8194H335.538V72.71H320.916V52.032H335.095V53.9225H323.102V70.8194ZM344.694 72.71V53.9225H337.427V52.032H354.147V53.9225H346.88V72.71H344.694ZM361.945 72.71V53.9225H354.678V52.032H371.398V53.9225H364.131V72.71H361.945ZM376.84 61.278H387.769V63.139H376.84V61.278ZM377.076 70.8194H389.512V72.71H374.89V52.032H389.069V53.9225H377.076V70.8194ZM394.651 72.71V52.032H402.39C404.143 52.032 405.649 52.3175 406.91 52.8886C408.17 53.44 409.135 54.2475 409.805 55.3109C410.494 56.3546 410.839 57.6249 410.839 59.1216C410.839 60.5789 410.494 61.8392 409.805 62.9027C409.135 63.9464 408.17 64.7539 406.91 65.325C405.649 65.8764 404.143 66.1521 402.39 66.1521H395.862L396.837 65.1477V72.71H394.651ZM408.771 72.71L403.454 65.2068H405.817L411.163 72.71H408.771ZM396.837 65.325L395.862 64.2911H402.331C404.399 64.2911 405.964 63.8381 407.028 62.9322C408.111 62.0263 408.653 60.7561 408.653 59.1216C408.653 57.4673 408.111 56.1873 407.028 55.2814C405.964 54.3755 404.399 53.9225 402.331 53.9225H395.862L396.837 52.8886V65.325ZM428.426 72.71L421.454 52.032H423.7L430.228 71.4988H429.105L435.84 52.032H437.849L444.496 71.4988H443.432L450.02 52.032H452.117L445.146 72.71H442.841L436.49 54.2475H437.081L430.7 72.71H428.426ZM464.991 72.8872C463.435 72.8872 461.988 72.6312 460.649 72.1192C459.329 71.5874 458.177 70.8489 457.193 69.9037C456.228 68.9387 455.469 67.826 454.918 66.5656C454.386 65.2856 454.12 63.8873 454.12 62.371C454.12 60.8546 454.386 59.4662 454.918 58.2058C455.469 56.9258 456.228 55.8131 457.193 54.8678C458.177 53.9028 459.329 53.1643 460.649 52.6523C461.968 52.1206 463.416 51.8547 464.991 51.8547C466.547 51.8547 467.985 52.1206 469.304 52.6523C470.623 53.1643 471.766 53.893 472.731 54.8383C473.715 55.7835 474.473 56.8962 475.005 58.1763C475.557 59.4563 475.832 60.8546 475.832 62.371C475.832 63.8873 475.557 65.2856 475.005 66.5656C474.473 67.8457 473.715 68.9584 472.731 69.9037C471.766 70.8489 470.623 71.5874 469.304 72.1192C467.985 72.6312 466.547 72.8872 464.991 72.8872ZM464.991 70.9376C466.232 70.9376 467.374 70.7308 468.418 70.3172C469.481 69.884 470.397 69.2833 471.165 68.5153C471.953 67.7275 472.563 66.8217 472.996 65.7976C473.43 64.7539 473.646 63.6116 473.646 62.371C473.646 61.1303 473.43 59.9979 472.996 58.9739C472.563 57.9301 471.953 57.0242 471.165 56.2562C470.397 55.4684 469.481 54.8678 468.418 54.4542C467.374 54.021 466.232 53.8044 464.991 53.8044C463.75 53.8044 462.598 54.021 461.535 54.4542C460.472 54.8678 459.546 55.4684 458.758 56.2562C457.99 57.0242 457.38 57.9301 456.927 58.9739C456.493 59.9979 456.277 61.1303 456.277 62.371C456.277 63.5919 456.493 64.7243 456.927 65.7681C457.38 66.8118 457.99 67.7275 458.758 68.5153C459.546 69.2833 460.472 69.884 461.535 70.3172C462.598 70.7308 463.75 70.9376 464.991 70.9376ZM480.732 72.71V52.032H488.471C490.224 52.032 491.731 52.3175 492.991 52.8886C494.251 53.44 495.216 54.2475 495.886 55.3109C496.575 56.3546 496.92 57.6249 496.92 59.1216C496.92 60.5789 496.575 61.8392 495.886 62.9027C495.216 63.9464 494.251 64.7539 492.991 65.325C491.731 65.8764 490.224 66.1521 488.471 66.1521H481.943L482.918 65.1477V72.71H480.732ZM494.852 72.71L489.535 65.2068H491.898L497.245 72.71H494.852ZM482.918 65.325L481.943 64.2911H488.412C490.48 64.2911 492.046 63.8381 493.109 62.9322C494.192 62.0263 494.734 60.7561 494.734 59.1216C494.734 57.4673 494.192 56.1873 493.109 55.2814C492.046 54.3755 490.48 53.9225 488.412 53.9225H481.943L482.918 52.8886V65.325ZM503.97 67.57L503.881 64.9114L516.406 52.032H518.917L509.789 61.6029L508.549 62.9322L503.97 67.57ZM502.079 72.71V52.032H504.265V72.71H502.079ZM516.938 72.71L508.017 62.43L509.494 60.8349L519.537 72.71H516.938ZM523.08 72.71V52.032H525.266V72.71H523.08ZM531.994 72.71V52.032H533.796L548.064 69.9923H547.119V52.032H549.275V72.71H547.473L533.235 54.7496H534.18V72.71H531.994ZM565.093 72.8872C563.518 72.8872 562.06 72.6312 560.721 72.1192C559.402 71.5874 558.25 70.8489 557.265 69.9037C556.3 68.9584 555.542 67.8457 554.99 66.5656C554.459 65.2856 554.193 63.8873 554.193 62.371C554.193 60.8546 554.459 59.4563 554.99 58.1763C555.542 56.8962 556.31 55.7835 557.295 54.8383C558.279 53.893 559.431 53.1643 560.751 52.6523C562.09 52.1206 563.547 51.8547 565.123 51.8547C566.698 51.8547 568.136 52.1009 569.436 52.5932C570.755 53.0856 571.878 53.8339 572.803 54.8383L571.444 56.2266C570.578 55.3601 569.623 54.7398 568.579 54.3656C567.535 53.9914 566.413 53.8044 565.211 53.8044C563.931 53.8044 562.75 54.021 561.667 54.4542C560.603 54.8678 559.668 55.4684 558.86 56.2562C558.072 57.0242 557.452 57.9301 556.999 58.9739C556.566 59.9979 556.349 61.1303 556.349 62.371C556.349 63.5919 556.566 64.7243 556.999 65.7681C557.452 66.8118 558.072 67.7275 558.86 68.5153C559.668 69.2833 560.603 69.884 561.667 70.3172C562.75 70.7308 563.921 70.9376 565.182 70.9376C566.363 70.9376 567.476 70.7603 568.52 70.4058C569.583 70.0514 570.558 69.4507 571.444 68.6039L572.685 70.2581C571.7 71.1246 570.548 71.7844 569.229 72.2373C567.909 72.6706 566.531 72.8872 565.093 72.8872ZM570.588 69.9923V62.371H572.685V70.2581L570.588 69.9923ZM595.583 72.8872C594.027 72.8872 592.59 72.6312 591.27 72.1192C589.951 71.5874 588.809 70.8489 587.844 69.9037C586.879 68.9584 586.12 67.8457 585.569 66.5656C585.037 65.2856 584.771 63.8873 584.771 62.371C584.771 60.8546 585.037 59.4563 585.569 58.1763C586.12 56.8962 586.879 55.7835 587.844 54.8383C588.828 53.893 589.98 53.1643 591.3 52.6523C592.619 52.1206 594.057 51.8547 595.613 51.8547C597.109 51.8547 598.517 52.1107 599.837 52.6228C601.156 53.1151 602.269 53.8634 603.175 54.8678L601.786 56.2562C600.94 55.3897 600.004 54.7693 598.98 54.3952C597.956 54.0013 596.853 53.8044 595.672 53.8044C594.431 53.8044 593.279 54.021 592.216 54.4542C591.152 54.8678 590.226 55.4684 589.439 56.2562C588.651 57.0242 588.031 57.9301 587.578 58.9739C587.144 59.9979 586.928 61.1303 586.928 62.371C586.928 63.6116 587.144 64.7539 587.578 65.7976C588.031 66.8217 588.651 67.7275 589.439 68.5153C590.226 69.2833 591.152 69.884 592.216 70.3172C593.279 70.7308 594.431 70.9376 595.672 70.9376C596.853 70.9376 597.956 70.7406 598.98 70.3468C600.004 69.9529 600.94 69.3227 601.786 68.4562L603.175 69.8446C602.269 70.8489 601.156 71.6071 599.837 72.1192C598.517 72.6312 597.099 72.8872 595.583 72.8872ZM616.165 72.8872C613.526 72.8872 611.449 72.129 609.932 70.6126C608.416 69.0962 607.658 66.8512 607.658 63.8775V52.032H609.844V63.7889C609.844 66.2309 610.395 68.0328 611.498 69.1947C612.601 70.3566 614.156 70.9376 616.165 70.9376C618.193 70.9376 619.759 70.3566 620.862 69.1947C621.965 68.0328 622.516 66.2309 622.516 63.7889V52.032H624.643V63.8775C624.643 66.8512 623.885 69.0962 622.368 70.6126C620.872 72.129 618.804 72.8872 616.165 72.8872ZM631.23 72.71V52.032H633.416V70.8194H644.996V72.71H631.23ZM650.71 72.71V53.9225H643.443V52.032H660.163V53.9225H652.896V72.71H650.71ZM671.581 72.8872C668.943 72.8872 666.865 72.129 665.349 70.6126C663.832 69.0962 663.074 66.8512 663.074 63.8775V52.032H665.26V63.7889C665.26 66.2309 665.811 68.0328 666.914 69.1947C668.017 70.3566 669.573 70.9376 671.581 70.9376C673.61 70.9376 675.175 70.3566 676.278 69.1947C677.381 68.0328 677.933 66.2309 677.933 63.7889V52.032H680.059V63.8775C680.059 66.8512 679.301 69.0962 677.785 70.6126C676.288 72.129 674.22 72.8872 671.581 72.8872ZM686.647 72.71V52.032H694.386C696.139 52.032 697.645 52.3175 698.906 52.8886C700.166 53.44 701.131 54.2475 701.801 55.3109C702.49 56.3546 702.835 57.6249 702.835 59.1216C702.835 60.5789 702.49 61.8392 701.801 62.9027C701.131 63.9464 700.166 64.7539 698.906 65.325C697.645 65.8764 696.139 66.1521 694.386 66.1521H687.858L688.833 65.1477V72.71H686.647ZM700.767 72.71L695.45 65.2068H697.813L703.159 72.71H700.767ZM688.833 65.325L687.858 64.2911H694.327C696.395 64.2911 697.96 63.8381 699.024 62.9322C700.107 62.0263 700.649 60.7561 700.649 59.1216C700.649 57.4673 700.107 56.1873 699.024 55.2814C697.96 54.3755 696.395 53.9225 694.327 53.9225H687.858L688.833 52.8886V65.325ZM709.943 61.278H720.873V63.139H709.943V61.278ZM710.18 70.8194H722.616V72.71H707.994V52.032H722.173V53.9225H710.18V70.8194ZM733.456 72.8872C731.92 72.8872 730.443 72.641 729.025 72.1487C727.627 71.6367 726.543 70.9868 725.775 70.1991L726.632 68.5153C727.361 69.2242 728.335 69.8249 729.556 70.3172C730.797 70.7899 732.097 71.0262 733.456 71.0262C734.756 71.0262 735.809 70.8686 736.617 70.5535C737.444 70.2188 738.044 69.7757 738.418 69.2242C738.812 68.6728 739.009 68.0623 739.009 67.3928C739.009 66.5853 738.773 65.9355 738.3 65.4431C737.847 64.9508 737.247 64.5668 736.498 64.2911C735.75 63.9957 734.923 63.7396 734.017 63.523C733.111 63.3064 732.205 63.0799 731.299 62.8436C730.393 62.5876 729.556 62.2528 728.788 61.8392C728.04 61.4257 727.43 60.8841 726.957 60.2145C726.504 59.5253 726.278 58.6292 726.278 57.5264C726.278 56.5023 726.543 55.5669 727.075 54.7201C727.627 53.8536 728.463 53.1643 729.586 52.6523C730.709 52.1206 732.146 51.8547 733.899 51.8547C735.061 51.8547 736.213 52.0221 737.355 52.3569C738.497 52.672 739.482 53.1151 740.309 53.6862L739.571 55.4291C738.684 54.8383 737.739 54.405 736.735 54.1293C735.75 53.8536 734.795 53.7157 733.869 53.7157C732.629 53.7157 731.605 53.8831 730.797 54.2179C729.99 54.5527 729.389 55.0057 728.995 55.5768C728.621 56.1282 728.434 56.7584 728.434 57.4673C728.434 58.2747 728.66 58.9246 729.113 59.417C729.586 59.9093 730.196 60.2933 730.945 60.569C731.713 60.8447 732.55 61.0909 733.456 61.3075C734.362 61.5241 735.258 61.7605 736.144 62.0165C737.05 62.2725 737.877 62.6073 738.625 63.0208C739.393 63.4147 740.004 63.9464 740.457 64.616C740.929 65.2856 741.166 66.1619 741.166 67.2451C741.166 68.2494 740.89 69.1849 740.339 70.0514C739.787 70.8982 738.94 71.5874 737.798 72.1192C736.676 72.6312 735.228 72.8872 733.456 72.8872Z" fill="white"/>
<defs>
<linearGradient id="paint0_linear_32_7" x1="0.849976" y1="62.2" x2="811.01" y2="62.2" gradientUnits="userSpaceOnUse">
<stop stop-color="#05CCA3"/>
<stop offset="0.5" stop-color="#46AFE1"/>
<stop offset="1" stop-color="#8085F0"/>
</linearGradient>
</defs>
</svg>
