<svg width="514" height="52" viewBox="0 0 514 52" fill="none" xmlns="http://www.w3.org/2000/svg">
<path d="M27.6331 51.7819C23.7044 51.7819 20.0598 51.1429 16.6991 49.8649C13.3858 48.5869 10.4984 46.7883 8.0371 44.4689C5.6231 42.1496 3.72976 39.4279 2.3571 36.3039C1.03176 33.1799 0.369098 29.7719 0.369098 26.0799C0.369098 22.3879 1.03176 18.9799 2.3571 15.8559C3.72976 12.7319 5.64676 10.0103 8.1081 7.69093C10.5694 5.3716 13.4568 3.57293 16.7701 2.29493C20.0834 1.01693 23.6808 0.377931 27.5621 0.377931C31.4908 0.377931 35.0881 1.01693 38.3541 2.29493C41.6674 3.57293 44.5311 5.3716 46.9451 7.69093C49.4064 10.0103 51.3234 12.7319 52.6961 15.8559C54.0688 18.9326 54.7551 22.3406 54.7551 26.0799C54.7551 29.7719 54.0688 33.2036 52.6961 36.3749C51.3234 39.4989 49.4064 42.2206 46.9451 44.5399C44.5311 46.8119 41.6674 48.5869 38.3541 49.8649C35.0881 51.1429 31.5144 51.7819 27.6331 51.7819ZM27.5621 41.9839C29.7868 41.9839 31.8221 41.6053 33.6681 40.8479C35.5614 40.0906 37.2181 39.0019 38.6381 37.5819C40.0581 36.1619 41.1468 34.4816 41.9041 32.5409C42.7088 30.6003 43.1111 28.4466 43.1111 26.0799C43.1111 23.7133 42.7088 21.5596 41.9041 19.6189C41.1468 17.6783 40.0581 15.9979 38.6381 14.5779C37.2654 13.1579 35.6324 12.0693 33.7391 11.3119C31.8458 10.5546 29.7868 10.1759 27.5621 10.1759C25.3374 10.1759 23.2784 10.5546 21.3851 11.3119C19.5391 12.0693 17.9061 13.1579 16.4861 14.5779C15.0661 15.9979 13.9538 17.6783 13.1491 19.6189C12.3918 21.5596 12.0131 23.7133 12.0131 26.0799C12.0131 28.3993 12.3918 30.5529 13.1491 32.5409C13.9538 34.4816 15.0424 36.1619 16.4151 37.5819C17.8351 39.0019 19.4918 40.0906 21.3851 40.8479C23.2784 41.6053 25.3374 41.9839 27.5621 41.9839ZM85.4803 51.7819C78.4277 51.7819 72.9133 49.8176 68.9373 45.8889C64.9613 41.9603 62.9733 36.3513 62.9733 29.0619V1.22993H74.4753V28.6359C74.4753 33.3693 75.4457 36.7773 77.3863 38.8599C79.327 40.9426 82.0487 41.9839 85.5513 41.9839C89.054 41.9839 91.7757 40.9426 93.7164 38.8599C95.657 36.7773 96.6273 33.3693 96.6273 28.6359V1.22993H107.987V29.0619C107.987 36.3513 105.999 41.9603 102.023 45.8889C98.0474 49.8176 92.533 51.7819 85.4803 51.7819ZM119.353 50.9299V1.22993H140.866C145.316 1.22993 149.15 1.9636 152.368 3.43093C155.587 4.85093 158.072 6.90993 159.823 9.60793C161.575 12.3059 162.45 15.5246 162.45 19.2639C162.45 22.9559 161.575 26.1509 159.823 28.8489C158.072 31.4996 155.587 33.5349 152.368 34.9549C149.15 36.3749 145.316 37.0849 140.866 37.0849H125.743L130.855 32.0439V50.9299H119.353ZM150.948 50.9299L138.523 32.8959H150.806L163.373 50.9299H150.948ZM130.855 33.3219L125.743 27.9259H140.227C143.777 27.9259 146.428 27.1686 148.179 25.6539C149.931 24.0919 150.806 21.9619 150.806 19.2639C150.806 16.5186 149.931 14.3886 148.179 12.8739C146.428 11.3593 143.777 10.6019 140.227 10.6019H125.743L130.855 5.13493V33.3219ZM215.456 51.7819C211.622 51.7819 208.048 51.1666 204.735 49.9359C201.469 48.6579 198.629 46.8593 196.215 44.5399C193.801 42.2206 191.907 39.4989 190.535 36.3749C189.209 33.2509 188.547 29.8193 188.547 26.0799C188.547 22.3406 189.209 18.9089 190.535 15.7849C191.907 12.6609 193.801 9.93926 196.215 7.61993C198.676 5.3006 201.54 3.52559 204.806 2.29493C208.072 1.01693 211.645 0.377931 215.527 0.377931C219.834 0.377931 223.716 1.13526 227.171 2.64993C230.673 4.11726 233.608 6.2946 235.975 9.18193L228.591 15.9979C226.887 14.0573 224.994 12.6136 222.911 11.6669C220.828 10.6729 218.556 10.1759 216.095 10.1759C213.776 10.1759 211.645 10.5546 209.705 11.3119C207.764 12.0693 206.084 13.1579 204.664 14.5779C203.244 15.9979 202.131 17.6783 201.327 19.6189C200.569 21.5596 200.191 23.7133 200.191 26.0799C200.191 28.4466 200.569 30.6003 201.327 32.5409C202.131 34.4816 203.244 36.1619 204.664 37.5819C206.084 39.0019 207.764 40.0906 209.705 40.8479C211.645 41.6053 213.776 41.9839 216.095 41.9839C218.556 41.9839 220.828 41.5106 222.911 40.5639C224.994 39.5699 226.887 38.0789 228.591 36.0909L235.975 42.9069C233.608 45.7943 230.673 47.9953 227.171 49.5099C223.716 51.0246 219.811 51.7819 215.456 51.7819ZM243.742 50.9299V1.22993H255.244V41.5579H280.165V50.9299H243.742ZM286.592 50.9299V1.22993H298.094V50.9299H286.592ZM320.468 21.2519H344.395V30.1979H320.468V21.2519ZM321.32 41.6999H348.371V50.9299H309.889V1.22993H347.448V10.4599H321.32V41.6999ZM357.522 50.9299V1.22993H367.036L396.359 37.0139H391.744V1.22993H403.104V50.9299H393.661L364.267 15.1459H368.882V50.9299H357.522ZM425.158 50.9299V10.6019H409.254V1.22993H452.564V10.6019H436.66V50.9299H425.158ZM474.736 51.7819C470.76 51.7819 466.95 51.2613 463.305 50.2199C459.661 49.1313 456.726 47.7349 454.501 46.0309L458.406 37.3689C460.536 38.8836 463.045 40.1379 465.932 41.1319C468.867 42.0786 471.825 42.5519 474.807 42.5519C477.079 42.5519 478.902 42.3389 480.274 41.9129C481.694 41.4396 482.736 40.8006 483.398 39.9959C484.061 39.1913 484.392 38.2683 484.392 37.2269C484.392 35.9016 483.872 34.8603 482.83 34.1029C481.789 33.2983 480.416 32.6593 478.712 32.1859C477.008 31.6653 475.115 31.1919 473.032 30.7659C470.997 30.2926 468.938 29.7246 466.855 29.0619C464.82 28.3993 462.95 27.5473 461.246 26.5059C459.542 25.4646 458.146 24.0919 457.057 22.3879C456.016 20.6839 455.495 18.5066 455.495 15.8559C455.495 13.0159 456.253 10.4363 457.767 8.11693C459.329 5.75026 461.649 3.88059 464.725 2.50793C467.849 1.08793 471.754 0.377931 476.44 0.377931C479.564 0.377931 482.641 0.756597 485.67 1.51393C488.7 2.22393 491.374 3.31259 493.693 4.77993L490.143 13.5129C487.824 12.1876 485.505 11.2173 483.185 10.6019C480.866 9.93926 478.594 9.60793 476.369 9.60793C474.145 9.60793 472.322 9.86826 470.902 10.3889C469.482 10.9096 468.465 11.5959 467.849 12.4479C467.234 13.2526 466.926 14.1993 466.926 15.2879C466.926 16.5659 467.447 17.6073 468.488 18.4119C469.53 19.1693 470.902 19.7846 472.606 20.2579C474.31 20.7313 476.18 21.2046 478.215 21.6779C480.298 22.1513 482.357 22.6956 484.392 23.3109C486.475 23.9263 488.368 24.7546 490.072 25.7959C491.776 26.8373 493.149 28.2099 494.19 29.9139C495.279 31.6179 495.823 33.7716 495.823 36.3749C495.823 39.1676 495.042 41.7236 493.48 44.0429C491.918 46.3623 489.575 48.2319 486.451 49.6519C483.375 51.0719 479.47 51.7819 474.736 51.7819Z" fill="white"/>
<path d="M507.091 51.4979C505.197 51.4979 503.564 50.8589 502.192 49.5809C500.866 48.2556 500.204 46.5753 500.204 44.5399C500.204 42.5046 500.866 40.8716 502.192 39.6409C503.564 38.3629 505.197 37.7239 507.091 37.7239C509.031 37.7239 510.664 38.3629 511.99 39.6409C513.315 40.8716 513.978 42.5046 513.978 44.5399C513.978 46.5753 513.315 48.2556 511.99 49.5809C510.664 50.8589 509.031 51.4979 507.091 51.4979Z" fill="#05CFA6"/>
</svg>
