<svg width="694" height="124" viewBox="0 0 694 124" fill="none" xmlns="http://www.w3.org/2000/svg">
<path d="M61.6898 0.889893H631.75C665.56 0.889893 693.06 28.3899 693.06 62.2C693.06 96.01 665.56 123.51 631.75 123.51H61.6898C27.8798 123.51 0.379883 96.01 0.379883 62.2C0.379883 28.3899 27.8798 0.889893 61.6898 0.889893Z" fill="url(#paint0_linear_32_8)"/>
<path d="M653.47 60.72L641.68 51.3401C641.51 51.2001 641.3 51.09 641.08 51.01C640.85 50.93 640.61 50.8999 640.36 50.8999C640.11 50.8999 639.87 50.94 639.64 51.01C639.41 51.09 639.21 51.2001 639.04 51.3401C638.69 51.6201 638.5 51.9899 638.5 52.3799C638.5 52.7699 638.69 53.1399 639.04 53.4199L649.51 61.76L638.96 70.1001C638.79 70.2401 638.65 70.4101 638.56 70.5901C638.47 70.7701 638.42 70.9699 638.43 71.1599C638.43 71.3599 638.49 71.55 638.58 71.73C638.67 71.91 638.82 72.07 639 72.21C639.18 72.35 639.39 72.45 639.62 72.53C639.85 72.6 640.1 72.6399 640.35 72.6399C640.6 72.6399 640.84 72.6 641.07 72.52C641.3 72.44 641.5 72.3299 641.68 72.1899L653.55 62.8101C653.72 62.6701 653.86 62.5001 653.94 62.3201C654.03 62.1401 654.07 61.95 654.06 61.75C654.06 61.56 654 61.3599 653.89 61.1899C653.79 61.0099 653.64 60.85 653.46 60.72H653.47Z" fill="white"/>
<path d="M74.6676 72.71V52.032H76.8536V70.8194H88.4333V72.71H74.6676ZM94.0124 61.278H104.942V63.139H94.0124V61.278ZM94.2487 70.8194H106.685V72.71H92.0627V52.032H106.242V53.9225H94.2487V70.8194ZM115.841 72.71V53.9225H108.574V52.032H125.294V53.9225H118.027V72.71H115.841ZM127.909 57.999L129.209 52.5637L129.445 53.8044C128.992 53.8044 128.608 53.6665 128.293 53.3908C127.998 53.0954 127.85 52.7114 127.85 52.2387C127.85 51.7661 127.998 51.3821 128.293 51.0867C128.608 50.7913 128.982 50.6436 129.416 50.6436C129.869 50.6436 130.233 50.8011 130.509 51.1162C130.804 51.4116 130.952 51.7858 130.952 52.2387C130.952 52.3963 130.942 52.5538 130.922 52.7114C130.902 52.8689 130.863 53.0462 130.804 53.2431C130.765 53.4203 130.696 53.6468 130.597 53.9225L129.327 57.999H127.909ZM141.872 72.8872C140.336 72.8872 138.859 72.641 137.441 72.1487C136.043 71.6367 134.96 70.9868 134.192 70.1991L135.048 68.5153C135.777 69.2242 136.752 69.8249 137.973 70.3172C139.213 70.7899 140.513 71.0262 141.872 71.0262C143.172 71.0262 144.225 70.8686 145.033 70.5535C145.86 70.2188 146.461 69.7757 146.835 69.2242C147.229 68.6728 147.426 68.0623 147.426 67.3928C147.426 66.5853 147.189 65.9355 146.717 65.4431C146.264 64.9508 145.663 64.5668 144.915 64.2911C144.166 63.9957 143.339 63.7396 142.433 63.523C141.527 63.3064 140.622 63.0799 139.716 62.8436C138.81 62.5876 137.973 62.2528 137.205 61.8392C136.456 61.4257 135.846 60.8841 135.373 60.2145C134.92 59.5253 134.694 58.6292 134.694 57.5264C134.694 56.5023 134.96 55.5669 135.491 54.7201C136.043 53.8536 136.88 53.1643 138.002 52.6523C139.125 52.1206 140.562 51.8547 142.315 51.8547C143.477 51.8547 144.629 52.0221 145.771 52.3569C146.914 52.672 147.898 53.1151 148.725 53.6862L147.987 55.4291C147.101 54.8383 146.155 54.405 145.151 54.1293C144.166 53.8536 143.211 53.7157 142.286 53.7157C141.045 53.7157 140.021 53.8831 139.213 54.2179C138.406 54.5527 137.805 55.0057 137.411 55.5768C137.037 56.1282 136.85 56.7584 136.85 57.4673C136.85 58.2747 137.077 58.9246 137.53 59.417C138.002 59.9093 138.613 60.2933 139.361 60.569C140.129 60.8447 140.966 61.0909 141.872 61.3075C142.778 61.5241 143.674 61.7605 144.56 62.0165C145.466 62.2725 146.293 62.6073 147.042 63.0208C147.81 63.4147 148.42 63.9464 148.873 64.616C149.346 65.2856 149.582 66.1619 149.582 67.2451C149.582 68.2494 149.306 69.1849 148.755 70.0514C148.203 70.8982 147.357 71.5874 146.214 72.1192C145.092 72.6312 143.644 72.8872 141.872 72.8872ZM171.056 72.8872C169.5 72.8872 168.063 72.6312 166.743 72.1192C165.424 71.5874 164.282 70.8489 163.317 69.9037C162.352 68.9584 161.594 67.8457 161.042 66.5656C160.51 65.2856 160.245 63.8873 160.245 62.371C160.245 60.8546 160.51 59.4563 161.042 58.1763C161.594 56.8962 162.352 55.7835 163.317 54.8383C164.301 53.893 165.453 53.1643 166.773 52.6523C168.092 52.1206 169.53 51.8547 171.086 51.8547C172.582 51.8547 173.99 52.1107 175.31 52.6228C176.629 53.1151 177.742 53.8634 178.648 54.8678L177.26 56.2562C176.413 55.3897 175.477 54.7693 174.453 54.3952C173.429 54.0013 172.326 53.8044 171.145 53.8044C169.904 53.8044 168.752 54.021 167.689 54.4542C166.625 54.8678 165.7 55.4684 164.912 56.2562C164.124 57.0242 163.504 57.9301 163.051 58.9739C162.618 59.9979 162.401 61.1303 162.401 62.371C162.401 63.6116 162.618 64.7539 163.051 65.7976C163.504 66.8217 164.124 67.7275 164.912 68.5153C165.7 69.2833 166.625 69.884 167.689 70.3172C168.752 70.7308 169.904 70.9376 171.145 70.9376C172.326 70.9376 173.429 70.7406 174.453 70.3468C175.477 69.9529 176.413 69.3227 177.26 68.4562L178.648 69.8446C177.742 70.8489 176.629 71.6071 175.31 72.1192C173.99 72.6312 172.573 72.8872 171.056 72.8872ZM191.914 72.8872C190.359 72.8872 188.911 72.6312 187.572 72.1192C186.253 71.5874 185.101 70.8489 184.116 69.9037C183.151 68.9387 182.393 67.826 181.841 66.5656C181.31 65.2856 181.044 63.8873 181.044 62.371C181.044 60.8546 181.31 59.4662 181.841 58.2058C182.393 56.9258 183.151 55.8131 184.116 54.8678C185.101 53.9028 186.253 53.1643 187.572 52.6523C188.891 52.1206 190.339 51.8547 191.914 51.8547C193.47 51.8547 194.908 52.1206 196.227 52.6523C197.547 53.1643 198.689 53.893 199.654 54.8383C200.639 55.7835 201.397 56.8962 201.928 58.1763C202.48 59.4563 202.756 60.8546 202.756 62.371C202.756 63.8873 202.48 65.2856 201.928 66.5656C201.397 67.8457 200.639 68.9584 199.654 69.9037C198.689 70.8489 197.547 71.5874 196.227 72.1192C194.908 72.6312 193.47 72.8872 191.914 72.8872ZM191.914 70.9376C193.155 70.9376 194.297 70.7308 195.341 70.3172C196.404 69.884 197.32 69.2833 198.088 68.5153C198.876 67.7275 199.486 66.8217 199.92 65.7976C200.353 64.7539 200.57 63.6116 200.57 62.371C200.57 61.1303 200.353 59.9979 199.92 58.9739C199.486 57.9301 198.876 57.0242 198.088 56.2562C197.32 55.4684 196.404 54.8678 195.341 54.4542C194.297 54.021 193.155 53.8044 191.914 53.8044C190.674 53.8044 189.522 54.021 188.458 54.4542C187.395 54.8678 186.469 55.4684 185.681 56.2562C184.913 57.0242 184.303 57.9301 183.85 58.9739C183.417 59.9979 183.2 61.1303 183.2 62.371C183.2 63.5919 183.417 64.7243 183.85 65.7681C184.303 66.8118 184.913 67.7275 185.681 68.5153C186.469 69.2833 187.395 69.884 188.458 70.3172C189.522 70.7308 190.674 70.9376 191.914 70.9376ZM207.655 72.71V52.032H209.841V70.8194H221.421V72.71H207.655ZM225.05 72.71V52.032H227.236V70.8194H238.816V72.71H225.05ZM239.137 72.71L248.59 52.032H250.746L260.199 72.71H257.895L249.21 53.3022H250.096L241.412 72.71H239.137ZM242.859 67.186L243.509 65.4136H255.532L256.182 67.186H242.859ZM263.62 72.71V52.032H272.541C274.845 52.032 276.627 52.4948 277.888 53.4203C279.168 54.3459 279.808 55.6555 279.808 57.3492C279.808 58.4717 279.542 59.417 279.01 60.185C278.498 60.953 277.789 61.534 276.883 61.9279C275.997 62.3217 275.022 62.5187 273.959 62.5187L274.461 61.8097C275.78 61.8097 276.913 62.0165 277.858 62.43C278.823 62.8239 279.571 63.4246 280.103 64.232C280.635 65.0197 280.901 66.0044 280.901 67.186C280.901 68.9387 280.251 70.2975 278.951 71.2625C277.671 72.2275 275.731 72.71 273.132 72.71H263.62ZM265.806 70.908H273.102C274.914 70.908 276.302 70.6028 277.267 69.9923C278.232 69.3621 278.715 68.3676 278.715 67.0087C278.715 65.6696 278.232 64.6948 277.267 64.0843C276.302 63.4541 274.914 63.139 273.102 63.139H265.569V61.3371H272.393C274.047 61.3371 275.327 61.022 276.233 60.3918C277.159 59.7616 277.622 58.8262 277.622 57.5855C277.622 56.3251 277.159 55.3897 276.233 54.7792C275.327 54.149 274.047 53.8339 272.393 53.8339H265.806V70.908ZM294.929 72.8872C293.374 72.8872 291.926 72.6312 290.587 72.1192C289.268 71.5874 288.116 70.8489 287.131 69.9037C286.166 68.9387 285.408 67.826 284.856 66.5656C284.325 65.2856 284.059 63.8873 284.059 62.371C284.059 60.8546 284.325 59.4662 284.856 58.2058C285.408 56.9258 286.166 55.8131 287.131 54.8678C288.116 53.9028 289.268 53.1643 290.587 52.6523C291.906 52.1206 293.354 51.8547 294.929 51.8547C296.485 51.8547 297.923 52.1206 299.242 52.6523C300.562 53.1643 301.704 53.893 302.669 54.8383C303.654 55.7835 304.412 56.8962 304.943 58.1763C305.495 59.4563 305.771 60.8546 305.771 62.371C305.771 63.8873 305.495 65.2856 304.943 66.5656C304.412 67.8457 303.654 68.9584 302.669 69.9037C301.704 70.8489 300.562 71.5874 299.242 72.1192C297.923 72.6312 296.485 72.8872 294.929 72.8872ZM294.929 70.9376C296.17 70.9376 297.312 70.7308 298.356 70.3172C299.419 69.884 300.335 69.2833 301.103 68.5153C301.891 67.7275 302.501 66.8217 302.935 65.7976C303.368 64.7539 303.585 63.6116 303.585 62.371C303.585 61.1303 303.368 59.9979 302.935 58.9739C302.501 57.9301 301.891 57.0242 301.103 56.2562C300.335 55.4684 299.419 54.8678 298.356 54.4542C297.312 54.021 296.17 53.8044 294.929 53.8044C293.689 53.8044 292.537 54.021 291.473 54.4542C290.41 54.8678 289.484 55.4684 288.696 56.2562C287.928 57.0242 287.318 57.9301 286.865 58.9739C286.432 59.9979 286.215 61.1303 286.215 62.371C286.215 63.5919 286.432 64.7243 286.865 65.7681C287.318 66.8118 287.928 67.7275 288.696 68.5153C289.484 69.2833 290.41 69.884 291.473 70.3172C292.537 70.7308 293.689 70.9376 294.929 70.9376ZM310.67 72.71V52.032H318.41C320.162 52.032 321.669 52.3175 322.929 52.8886C324.19 53.44 325.155 54.2475 325.824 55.3109C326.514 56.3546 326.858 57.6249 326.858 59.1216C326.858 60.5789 326.514 61.8392 325.824 62.9027C325.155 63.9464 324.19 64.7539 322.929 65.325C321.669 65.8764 320.162 66.1521 318.41 66.1521H311.881L312.856 65.1477V72.71H310.67ZM324.79 72.71L319.473 65.2068H321.836L327.183 72.71H324.79ZM312.856 65.325L311.881 64.2911H318.351C320.418 64.2911 321.984 63.8381 323.048 62.9322C324.131 62.0263 324.672 60.7561 324.672 59.1216C324.672 57.4673 324.131 56.1873 323.048 55.2814C321.984 54.3755 320.418 53.9225 318.351 53.9225H311.881L312.856 52.8886V65.325ZM328.709 72.71L338.162 52.032H340.318L349.771 72.71H347.467L338.782 53.3022H339.668L330.984 72.71H328.709ZM332.431 67.186L333.081 65.4136H345.104L345.754 67.186H332.431ZM356.171 72.71V53.9225H348.904V52.032H365.623V53.9225H358.357V72.71H356.171ZM371.065 61.278H381.995V63.139H371.065V61.278ZM371.302 70.8194H383.738V72.71H369.116V52.032H383.295V53.9225H371.302V70.8194ZM398.557 61.278H409.487V63.139H398.557V61.278ZM398.793 70.8194H411.23V72.71H396.607V52.032H410.787V53.9225H398.793V70.8194ZM418.318 62.046H429.248V63.9366H418.318V62.046ZM418.554 72.71H416.368V52.032H430.547V53.9225H418.554V72.71ZM437.011 62.046H447.941V63.9366H437.011V62.046ZM437.247 72.71H435.061V52.032H449.241V53.9225H437.247V72.71ZM455.704 61.278H466.634V63.139H455.704V61.278ZM455.941 70.8194H468.377V72.71H453.755V52.032H467.934V53.9225H455.941V70.8194ZM482.438 72.8872C480.882 72.8872 479.444 72.6312 478.125 72.1192C476.805 71.5874 475.663 70.8489 474.698 69.9037C473.733 68.9584 472.975 67.8457 472.424 66.5656C471.892 65.2856 471.626 63.8873 471.626 62.371C471.626 60.8546 471.892 59.4563 472.424 58.1763C472.975 56.8962 473.733 55.7835 474.698 54.8383C475.683 53.893 476.835 53.1643 478.154 52.6523C479.474 52.1206 480.912 51.8547 482.467 51.8547C483.964 51.8547 485.372 52.1107 486.692 52.6228C488.011 53.1151 489.124 53.8634 490.03 54.8678L488.641 56.2562C487.794 55.3897 486.859 54.7693 485.835 54.3952C484.811 54.0013 483.708 53.8044 482.526 53.8044C481.286 53.8044 480.134 54.021 479.07 54.4542C478.007 54.8678 477.081 55.4684 476.293 56.2562C475.506 57.0242 474.885 57.9301 474.432 58.9739C473.999 59.9979 473.783 61.1303 473.783 62.371C473.783 63.6116 473.999 64.7539 474.432 65.7976C474.885 66.8217 475.506 67.7275 476.293 68.5153C477.081 69.2833 478.007 69.884 479.07 70.3172C480.134 70.7308 481.286 70.9376 482.526 70.9376C483.708 70.9376 484.811 70.7406 485.835 70.3468C486.859 69.9529 487.794 69.3227 488.641 68.4562L490.03 69.8446C489.124 70.8489 488.011 71.6071 486.692 72.1192C485.372 72.6312 483.954 72.8872 482.438 72.8872ZM498.447 72.71V53.9225H491.18V52.032H507.9V53.9225H500.633V72.71H498.447ZM511.392 72.71V52.032H513.578V72.71H511.392ZM525.954 72.71L516.797 52.032H519.16L527.726 71.4988H526.427L535.052 52.032H537.268L528.11 72.71H525.954ZM542.218 61.278H553.148V63.139H542.218V61.278ZM542.455 70.8194H554.891V72.71H540.269V52.032H554.448V53.9225H542.455V70.8194ZM560.029 72.71V52.032H562.215V70.8194H573.795V72.71H560.029ZM580.165 72.71V65.0296L580.668 66.3884L571.894 52.032H574.228L581.938 64.6455H580.697L588.407 52.032H590.593L581.82 66.3884L582.322 65.0296V72.71H580.165Z" fill="white"/>
<defs>
<linearGradient id="paint0_linear_32_8" x1="693.06" y1="62.21" x2="0.369891" y2="62.21" gradientUnits="userSpaceOnUse">
<stop stop-color="#05CCA3"/>
<stop offset="0.5" stop-color="#46AFE1"/>
<stop offset="1" stop-color="#8085F0"/>
</linearGradient>
</defs>
</svg>
