<svg width="17" height="23" viewBox="0 0 17 23" fill="none" xmlns="http://www.w3.org/2000/svg">
<path d="M1.45003 12.6899L13.24 22.0701C13.41 22.2101 13.62 22.3199 13.84 22.3999C14.07 22.4799 14.31 22.51 14.56 22.51C14.81 22.51 15.05 22.4699 15.28 22.3999C15.51 22.3199 15.71 22.2101 15.88 22.0701C16.23 21.7901 16.42 21.42 16.42 21.03C16.42 20.64 16.23 20.27 15.88 19.99L5.41002 11.6499L15.96 3.31006C16.13 3.17006 16.27 3.00007 16.36 2.82007C16.45 2.64007 16.5 2.44 16.49 2.25C16.49 2.05 16.43 1.85993 16.34 1.67993C16.25 1.49993 16.1 1.33995 15.92 1.19995C15.74 1.05995 15.53 0.959883 15.3 0.879883C15.07 0.809883 14.82 0.77002 14.57 0.77002C14.32 0.77002 14.08 0.809893 13.85 0.889893C13.62 0.969893 13.42 1.07997 13.24 1.21997L1.37002 10.6001C1.20002 10.7401 1.06002 10.9101 0.980016 11.0901C0.890016 11.2701 0.850021 11.4599 0.860021 11.6599C0.860021 11.8499 0.920019 12.05 1.03002 12.22C1.13002 12.4 1.28001 12.5599 1.46001 12.6899H1.45003Z" fill="white"/>
</svg>
