<svg width="17" height="23" viewBox="0 0 17 23" fill="none" xmlns="http://www.w3.org/2000/svg">
<path d="M15.4699 10.72L3.67997 1.34009C3.50997 1.20009 3.29988 1.09001 3.07987 1.01001C2.84987 0.93001 2.6099 0.899902 2.3599 0.899902C2.1099 0.899902 1.86993 0.94001 1.63993 1.01001C1.40993 1.09001 1.20996 1.20009 1.03996 1.34009C0.689958 1.62009 0.499919 1.98988 0.499919 2.37988C0.499919 2.76988 0.689958 3.13992 1.03996 3.41992L11.5099 11.76L0.95988 20.1001C0.78988 20.2401 0.649978 20.4101 0.559978 20.5901C0.469978 20.7701 0.419973 20.9699 0.429973 21.1599C0.429973 21.3599 0.489875 21.55 0.579875 21.73C0.669875 21.91 0.819919 22.07 0.999919 22.21C1.17992 22.35 1.38991 22.45 1.61991 22.53C1.84991 22.6 2.09989 22.6399 2.34989 22.6399C2.59989 22.6399 2.83987 22.6 3.06987 22.52C3.29987 22.44 3.49997 22.3299 3.67997 22.1899L15.55 12.8101C15.72 12.6701 15.8599 12.5001 15.9399 12.3201C16.0299 12.1401 16.07 11.95 16.06 11.75C16.06 11.56 15.9999 11.3599 15.8899 11.1899C15.7899 11.0099 15.6399 10.85 15.4599 10.72H15.4699Z" fill="white"/>
</svg>
