<svg width="57" height="56" viewBox="0 0 57 56" fill="none" xmlns="http://www.w3.org/2000/svg">
<path d="M19.54 29.4601L31.33 38.8401C31.5 38.9801 31.71 39.09 31.93 39.17C32.16 39.25 32.4 39.2802 32.65 39.2802C32.9 39.2802 33.14 39.24 33.37 39.17C33.6 39.09 33.8 38.9801 33.97 38.8401C34.32 38.5601 34.51 38.1902 34.51 37.8002C34.51 37.4102 34.32 37.0401 33.97 36.7601L23.5 28.4202L34.05 20.0801C34.22 19.9401 34.36 19.7701 34.45 19.5901C34.54 19.4101 34.59 19.2101 34.58 19.0201C34.58 18.8201 34.52 18.6301 34.43 18.4501C34.34 18.2701 34.19 18.1101 34.01 17.9701C33.83 17.8301 33.62 17.7301 33.39 17.6501C33.16 17.5801 32.91 17.5402 32.66 17.5402C32.41 17.5402 32.17 17.5802 31.94 17.6602C31.71 17.7402 31.51 17.8501 31.33 17.9901L19.46 27.3701C19.29 27.5101 19.15 27.6801 19.07 27.8601C18.98 28.0401 18.94 28.2302 18.95 28.4302C18.95 28.6202 19.01 28.8201 19.12 28.9901C19.22 29.1701 19.37 29.3301 19.55 29.4601H19.54Z" fill="url(#paint0_linear_1_1390)"/>
<path d="M8.56 47.7601C12.47 51.6701 17.46 54.34 22.88 55.41C28.31 56.49 33.93 55.9301 39.04 53.8201C44.15 51.7001 48.52 48.1201 51.59 43.5201C54.66 38.9201 56.3 33.5101 56.3 27.9801C56.3 22.4501 54.66 17.04 51.59 12.44C48.52 7.84002 44.15 4.26009 39.04 2.14009C33.93 0.0200942 28.31 -0.529872 22.88 0.550128C17.45 1.63013 12.47 4.29003 8.56 8.20003C5.96 10.8 3.9 13.8801 2.5 17.2701C1.09 20.6601 0.369995 24.3001 0.369995 27.9701C0.369995 31.6401 1.09 35.2801 2.5 38.6701C3.91 42.0601 5.97 45.1501 8.56 47.7401V47.7601ZM11.2 10.84C14.59 7.45004 18.91 5.15004 23.61 4.21004C28.31 3.28004 33.18 3.76004 37.61 5.59004C42.04 7.42005 45.82 10.5301 48.48 14.5201C51.14 18.5101 52.56 23.1901 52.56 27.9801C52.56 32.7701 51.14 37.46 48.48 41.44C45.82 45.43 42.03 48.5302 37.61 50.3702C33.18 52.2002 28.31 52.6901 23.61 51.7501C18.91 50.8201 14.59 48.5102 11.2 45.1202C8.95 42.8702 7.16 40.2001 5.94 37.2601C4.72 34.3201 4.09 31.1701 4.09 27.9801C4.09 24.7901 4.72 21.64 5.94 18.7C7.16 15.76 8.95 13.09 11.2 10.84Z" fill="url(#paint1_linear_1_1390)"/>
<defs>
<linearGradient id="paint0_linear_1_1390" x1="33.84" y1="28.4202" x2="18.58" y2="28.4202" gradientUnits="userSpaceOnUse">
<stop stop-color="#068A79"/>
<stop offset="0.49" stop-color="#45B0E0"/>
<stop offset="1" stop-color="#8086F0"/>
</linearGradient>
<linearGradient id="paint1_linear_1_1390" x1="53.64" y1="27.9801" x2="-0.970005" y2="27.9801" gradientUnits="userSpaceOnUse">
<stop stop-color="#068A79"/>
<stop offset="0.49" stop-color="#45B0E0"/>
<stop offset="1" stop-color="#8086F0"/>
</linearGradient>
</defs>
</svg>
