<svg width="57" height="56" viewBox="0 0 57 56" fill="none" xmlns="http://www.w3.org/2000/svg">
<path d="M36.9898 27.3602L25.1998 17.9802C25.0298 17.8402 24.8198 17.7303 24.5998 17.6503C24.3698 17.5703 24.1298 17.5402 23.8798 17.5402C23.6298 17.5402 23.3898 17.5803 23.1598 17.6503C22.9298 17.7303 22.7298 17.8402 22.5598 17.9802C22.2098 18.2602 22.0198 18.6301 22.0198 19.0201C22.0198 19.4101 22.2098 19.7802 22.5598 20.0602L33.0298 28.4001L22.4798 36.7402C22.3098 36.8802 22.1698 37.0502 22.0798 37.2302C21.9898 37.4102 21.9398 37.6102 21.9498 37.8002C21.9498 38.0002 22.0098 38.1902 22.0998 38.3702C22.1898 38.5502 22.3398 38.7102 22.5198 38.8502C22.6998 38.9902 22.9098 39.0902 23.1398 39.1702C23.3698 39.2402 23.6198 39.2802 23.8698 39.2802C24.1198 39.2802 24.3598 39.2402 24.5898 39.1602C24.8198 39.0802 25.0198 38.9702 25.1998 38.8302L37.0698 29.4502C37.2398 29.3102 37.3798 29.1402 37.4598 28.9602C37.5498 28.7802 37.5898 28.5901 37.5798 28.3901C37.5798 28.2001 37.5198 28.0002 37.4098 27.8302C37.3098 27.6502 37.1598 27.4902 36.9798 27.3602H36.9898Z" fill="url(#paint0_linear_32_12)"/>
<path d="M8.56 47.7601C12.47 51.6701 17.46 54.34 22.88 55.41C28.31 56.49 33.93 55.9301 39.04 53.8201C44.15 51.7001 48.52 48.1201 51.59 43.5201C54.66 38.9201 56.3 33.5101 56.3 27.9801C56.3 22.4501 54.66 17.04 51.59 12.44C48.52 7.84002 44.15 4.26009 39.04 2.14009C33.93 0.0200942 28.31 -0.529872 22.88 0.550128C17.45 1.63013 12.47 4.29003 8.56 8.20003C5.96 10.8 3.9 13.8801 2.5 17.2701C1.09 20.6601 0.369995 24.3001 0.369995 27.9701C0.369995 31.6401 1.09 35.2801 2.5 38.6701C3.91 42.0601 5.97 45.1501 8.56 47.7401V47.7601ZM11.2 10.84C14.59 7.45004 18.91 5.15004 23.61 4.21004C28.31 3.28004 33.18 3.76004 37.61 5.59004C42.04 7.42005 45.82 10.5301 48.48 14.5201C51.14 18.5101 52.56 23.1901 52.56 27.9801C52.56 32.7701 51.14 37.46 48.48 41.44C45.82 45.43 42.03 48.5302 37.61 50.3702C33.18 52.2002 28.31 52.6901 23.61 51.7501C18.91 50.8201 14.59 48.5102 11.2 45.1202C8.95 42.8702 7.16 40.2001 5.94 37.2601C4.72 34.3201 4.09 31.1701 4.09 27.9801C4.09 24.7901 4.72 21.64 5.94 18.7C7.16 15.76 8.95 13.09 11.2 10.84Z" fill="url(#paint1_linear_32_12)"/>
<defs>
<linearGradient id="paint0_linear_32_12" x1="22.6898" y1="28.4002" x2="37.9498" y2="28.4002" gradientUnits="userSpaceOnUse">
<stop stop-color="#068A79"/>
<stop offset="0.49" stop-color="#45B0E0"/>
<stop offset="1" stop-color="#8086F0"/>
</linearGradient>
<linearGradient id="paint1_linear_32_12" x1="53.64" y1="27.9801" x2="-0.970005" y2="27.9801" gradientUnits="userSpaceOnUse">
<stop stop-color="#068A79"/>
<stop offset="0.49" stop-color="#45B0E0"/>
<stop offset="1" stop-color="#8086F0"/>
</linearGradient>
</defs>
</svg>
