<svg width="1016" height="217" viewBox="0 0 1016 217" fill="none" xmlns="http://www.w3.org/2000/svg">
<mask id="mask0_1_1480" style="mask-type:luminance" maskUnits="userSpaceOnUse" x="0" y="0" width="217" height="217">
<path d="M216.9 0.0200195H0.899902V216.02H216.9V0.0200195Z" fill="white"/>
</mask>
<g mask="url(#mask0_1_1480)">
<path d="M78.7297 90.63L78.6597 100.37H94.2497L90.5597 90.63H78.7197H78.7297Z" fill="white"/>
<path d="M108.9 0.0200195C49.2499 0.0200195 0.899902 48.37 0.899902 108.02C0.899902 167.67 49.2499 216.02 108.9 216.02C168.55 216.02 216.9 167.67 216.9 108.02C216.9 48.37 168.55 0.0200195 108.9 0.0200195ZM146.76 133.16L113.79 150L97.2299 107.8L78.8399 117.23V132.79L44.8799 150.06V90.59L78.5099 73.27L124.66 73.6L137.19 106.49L146.19 90.35L179.74 73.37L146.75 133.16H146.76Z" fill="white"/>
</g>
<path d="M281.9 0.0200195V216.02" stroke="white" stroke-width="2"/>
<path d="M459.62 120.38V159.46C448.73 159.46 439.81 150.64 439.81 139.65V123.43C439.81 112.43 434.91 107.32 426.86 107.32C417.93 107.32 411.73 112.98 411.73 125.17V159.46C400.84 159.46 391.92 150.64 391.92 139.65V123.43C391.92 112.43 387.24 107.32 378.97 107.32C370.26 107.32 363.95 112.98 363.95 125.17V159.46C353.06 159.46 344.14 150.64 344.14 139.65V91.21H355.14C359.49 91.21 362.98 94.69 362.98 99.05C368.1 93.17 375.72 90.12 384.43 90.12C393.9 90.12 402.07 93.82 406.86 101.33C412.3 94.36 421.23 90.12 431.46 90.12C447.9 90.23 459.66 99.59 459.66 120.38H459.62Z" fill="white"/>
<path d="M538.76 130.94H489.77C491.62 139.43 498.48 144.66 508.28 144.66C515.14 144.66 520.04 142.48 524.5 138.02L534.52 149.45C528.53 156.63 519.5 160.45 507.85 160.45C485.42 160.45 470.95 145.64 470.95 125.29C470.95 104.94 485.76 90.13 505.46 90.13C525.16 90.13 539.21 103.63 539.21 125.51C539.1 127.14 538.88 129.32 538.77 130.95L538.76 130.94ZM489.55 119.4H521.45C520.14 110.8 513.94 105.14 505.56 105.14C496.96 105.14 490.86 110.58 489.56 119.4H489.55Z" fill="white"/>
<path d="M623.459 55.5V159.46H604.52V151.62C599.62 157.61 592.33 160.55 583.18 160.55C563.91 160.55 549 146.83 549 125.39C549 103.95 563.81 90.23 583.18 90.23C591.56 90.23 598.64 92.84 603.65 98.5V75.31C603.65 64.42 612.579 55.5 623.459 55.5ZM604.079 125.39C604.079 113.63 596.46 106.45 586.66 106.45C576.86 106.45 569.13 113.53 569.13 125.39C569.13 137.25 576.75 144.33 586.66 144.33C596.46 144.22 604.079 137.15 604.079 125.39Z" fill="white"/>
<path d="M640.77 90.12H660.579V159.47H640.77V90.12Z" fill="white"/>
<path d="M819.95 159.46H758.99V147.49L793.83 106.34H775.21C766.83 106.34 759.97 99.48 759.97 91.1H818.86V103.07L784.02 144.22H804.7C813.19 144.22 819.94 151.08 819.94 159.46H819.95Z" fill="white"/>
<path d="M825.62 125.39C825.62 104.81 841.51 90.23 863.18 90.23C884.85 90.23 900.63 104.82 900.63 125.39C900.63 145.96 884.84 160.55 863.18 160.55C841.52 160.55 825.62 145.96 825.62 125.39ZM880.6 125.39C880.6 113.63 873.09 106.45 863.18 106.45C853.27 106.45 845.65 113.53 845.65 125.39C845.65 137.25 853.27 144.33 863.18 144.33C873.09 144.33 880.6 137.15 880.6 125.39Z" fill="white"/>
<path d="M908.79 125.39C908.79 104.81 924.679 90.23 946.349 90.23C968.019 90.23 983.8 104.82 983.8 125.39C983.8 145.96 968.009 160.55 946.349 160.55C924.689 160.55 908.79 145.96 908.79 125.39ZM963.77 125.39C963.77 113.63 956.259 106.45 946.349 106.45C936.439 106.45 928.819 113.53 928.819 125.39C928.819 137.25 936.439 144.33 946.349 144.33C956.259 144.33 963.77 137.15 963.77 125.39Z" fill="white"/>
<path d="M650.67 79.44C657.281 79.44 662.64 74.0808 662.64 67.47C662.64 60.8592 657.281 55.5 650.67 55.5C644.059 55.5 638.7 60.8592 638.7 67.47C638.7 74.0808 644.059 79.44 650.67 79.44Z" fill="white"/>
<path d="M1003.39 160.11C1010 160.11 1015.36 154.751 1015.36 148.14C1015.36 141.529 1010 136.17 1003.39 136.17C996.779 136.17 991.42 141.529 991.42 148.14C991.42 154.751 996.779 160.11 1003.39 160.11Z" fill="#05CCA3"/>
<path d="M747.229 91.21V159.47H728.29V151.63C723.39 157.62 716.099 160.56 706.949 160.56C687.679 160.56 672.77 146.84 672.77 125.4C672.77 103.96 687.579 90.24 706.949 90.24C715.329 90.24 722.41 92.85 727.42 98.51C727.42 94.48 730.689 91.33 734.599 91.33H747.229V91.22V91.21ZM727.74 125.39C727.74 113.63 720.119 106.45 710.319 106.45C700.519 106.45 692.79 113.53 692.79 125.39C692.79 137.25 700.409 144.33 710.319 144.33C720.119 144.22 727.74 137.15 727.74 125.39Z" fill="white"/>
</svg>
