<svg height="30" viewBox="0 0 625.5 104.9" xmlns="http://www.w3.org/2000/svg"><g fill="#fff"><path d="m111.1 63.8v35.9c-10 0-18.2-8.1-18.2-18.2v-14.9c0-10.1-4.5-14.8-11.9-14.8-8.2 0-13.9 5.2-13.9 16.4v31.5c-10 0-18.2-8.1-18.2-18.2v-14.9c0-10.1-4.3-14.8-11.9-14.8-8 0-13.8 5.2-13.8 16.4v31.5c-10 0-18.2-8.1-18.2-18.2v-44.5h10.1c4 0 7.2 3.2 7.2 7.2 4.7-5.4 11.7-8.2 19.7-8.2 8.7 0 16.2 3.4 20.6 10.3 5-6.4 13.2-10.3 22.6-10.3 15.1.1 25.9 8.7 25.9 27.8z"/><path d="m183.8 73.5h-45c1.7 7.8 8 12.6 17 12.6 6.3 0 10.8-2 14.9-6.1l9.2 10.5c-5.5 6.6-13.8 10.1-24.5 10.1-20.6 0-33.9-13.6-33.9-32.3 0-18.8 13.6-32.3 31.7-32.3 17.5 0 31 12.4 31 32.5-.1 1.5-.3 3.5-.4 5zm-45.2-10.6h29.3c-1.2-7.9-6.9-13.1-14.6-13.1-7.9 0-13.5 5-14.7 13.1z"/><path d="m261.6 4.2v95.5h-17.4v-7.2c-4.5 5.5-11.2 8.2-19.6 8.2-17.7 0-31.4-12.6-31.4-32.3s13.6-32.3 31.4-32.3c7.7 0 14.2 2.4 18.8 7.6v-21.3c0-10 8.2-18.2 18.2-18.2zm-17.8 64.2c0-10.8-7-17.4-16-17.4-9.1 0-16.1 6.5-16.1 17.4 0 10.8 7 17.4 16.1 17.4 9-.1 16-6.6 16-17.4z"/><path d="m277.5 36h18.2v63.7h-18.2z"/><path d="m442.1 99.7h-56v-11l32-37.8h-17.1c-7.7 0-14-6.3-14-14h54.1v11l-32 37.8h19c7.8 0 14 6.3 14 14z"/><path d="m447.3 68.4c0-18.9 14.6-32.3 34.5-32.3s34.4 13.4 34.4 32.3-14.5 32.3-34.4 32.3-34.5-13.4-34.5-32.3zm50.5 0c0-10.8-6.9-17.4-16-17.4s-16.1 6.5-16.1 17.4c0 10.8 7 17.4 16.1 17.4s16-6.6 16-17.4z"/><path d="m523.7 68.4c0-18.9 14.6-32.3 34.5-32.3s34.4 13.4 34.4 32.3-14.5 32.3-34.4 32.3-34.5-13.4-34.5-32.3zm50.5 0c0-10.8-6.9-17.4-16-17.4s-16.1 6.5-16.1 17.4c0 10.8 7 17.4 16.1 17.4s16-6.6 16-17.4z"/><circle cx="286.6" cy="15.2" r="11"/></g><circle cx="610.6" cy="89.3" fill="#05d6ad" r="11"/><path d="m375.3 37v62.7h-17.4v-7.2c-4.5 5.5-11.2 8.2-19.6 8.2-17.7 0-31.4-12.6-31.4-32.3s13.6-32.3 31.4-32.3c7.7 0 14.2 2.4 18.8 7.6 0-3.7 3-6.6 6.6-6.6h11.6zm-17.9 31.4c0-10.8-7-17.4-16-17.4-9.1 0-16.1 6.5-16.1 17.4 0 10.8 7 17.4 16.1 17.4 9-.1 16-6.6 16-17.4z" fill="#fff"/></svg>